<svg xmlns="http://www.w3.org/2000/svg" xmlns:xlink="http://www.w3.org/1999/xlink" version="1.1" x="0px" y="0px" viewBox="0 0 32 40" style="enable-background:new 0 0 32 32;" xml:space="preserve"><g><path d="M29.6254883,0.7193604c-0.2358398-0.1894531-0.546875-0.2597656-0.8422852-0.1962891l-18,4   C10.3256836,4.6256104,10,5.0308838,10,5.4996338v17.0255737c-0.8382568-0.6345825-1.8700562-1.0255737-3-1.0255737   c-2.7568359,0-5,2.2431641-5,5s2.2431641,5,5,5s5-2.2431641,5-5V12.302124l16-3.555542v7.7786255   c-0.8382568-0.6345825-1.8700562-1.0255737-3-1.0255737c-2.7568359,0-5,2.2431641-5,5s2.2431641,5,5,5s5-2.2431641,5-5v-19   C30,1.1959229,29.8623047,0.90979,29.6254883,0.7193604z"/></g><text x="0" y="47" fill="#000000" font-size="5px" font-weight="bold" font-family="'Helvetica Neue', Helvetica, Arial-Unicode, Arial, Sans-serif">Created by ibnu nasikin hasanah</text><text x="0" y="52" fill="#000000" font-size="5px" font-weight="bold" font-family="'Helvetica Neue', Helvetica, Arial-Unicode, Arial, Sans-serif">from the Noun Project</text></svg>